<?xml version="1.0" encoding="UTF-8" standalone="no"?>
<!-- Created with Inkscape (http://www.inkscape.org/) -->

<svg
   width="320"
   height="320"
   viewBox="0 0 320.00001 320.00001"
   version="1.1"
   id="svg5"
   sodipodi:docname="hero.svg"
   inkscape:version="1.1 (c68e22c387, 2021-05-23)"
   xmlns:inkscape="http://www.inkscape.org/namespaces/inkscape"
   xmlns:sodipodi="http://sodipodi.sourceforge.net/DTD/sodipodi-0.dtd"
   xmlns:xlink="http://www.w3.org/1999/xlink"
   xmlns="http://www.w3.org/2000/svg"
   xmlns:svg="http://www.w3.org/2000/svg">
  <sodipodi:namedview
     id="namedview7"
     pagecolor="#ffffff"
     bordercolor="#666666"
     borderopacity="1.0"
     inkscape:pageshadow="2"
     inkscape:pageopacity="0.0"
     inkscape:pagecheckerboard="0"
     inkscape:document-units="px"
     showgrid="false"
     units="px"
     inkscape:zoom="0.74118965"
     inkscape:cx="-45.8722"
     inkscape:cy="134.24364"
     inkscape:window-width="1920"
     inkscape:window-height="1017"
     inkscape:window-x="1592"
     inkscape:window-y="-8"
     inkscape:window-maximized="1"
     inkscape:current-layer="layer1"
     inkscape:snap-bbox="true"
     inkscape:bbox-paths="true"
     inkscape:bbox-nodes="true"
     inkscape:snap-bbox-edge-midpoints="true"
     inkscape:snap-bbox-midpoints="true"
     inkscape:object-paths="true"
     inkscape:snap-intersection-paths="true"
     inkscape:snap-page="true"
     inkscape:snap-center="true"
     inkscape:snap-text-baseline="true"
     inkscape:snap-midpoints="true"
     inkscape:snap-smooth-nodes="true"
     inkscape:snap-object-midpoints="true" />
  <defs
     id="defs2">
    <linearGradient
       inkscape:collect="always"
       id="linearGradient2951">
      <stop
         style="stop-color:#ffffff;stop-opacity:1;"
         offset="0"
         id="stop2947" />
      <stop
         style="stop-color:#ffffff;stop-opacity:0;"
         offset="1"
         id="stop2949" />
    </linearGradient>
    <linearGradient
       inkscape:collect="always"
       id="linearGradient1777">
      <stop
         style="stop-color:#f9f9f9;stop-opacity:1"
         offset="0"
         id="stop1773" />
      <stop
         style="stop-color:#ffffff;stop-opacity:1"
         offset="1"
         id="stop1775" />
    </linearGradient>
    <linearGradient
       inkscape:collect="always"
       id="linearGradient1189">
      <stop
         style="stop-color:#ff0000;stop-opacity:1;"
         offset="0"
         id="stop1185" />
      <stop
         style="stop-color:#d40000;stop-opacity:1"
         offset="1"
         id="stop1187" />
    </linearGradient>
    <linearGradient
       inkscape:collect="always"
       xlink:href="#linearGradient1189"
       id="linearGradient1191"
       x1="265.78894"
       y1="-41.028172"
       x2="26.552837"
       y2="349.00742"
       gradientUnits="userSpaceOnUse"
       gradientTransform="matrix(0.89459513,0,0,0.89459513,16.864779,16.864779)" />
    <radialGradient
       inkscape:collect="always"
       xlink:href="#linearGradient1777"
       id="radialGradient1779"
       cx="142.88878"
       cy="148.77527"
       fx="142.88878"
       fy="148.77527"
       r="87.599977"
       gradientTransform="matrix(1,0,0,0.98632391,0,2.0346643)"
       gradientUnits="userSpaceOnUse" />
    <filter
       inkscape:collect="always"
       style="color-interpolation-filters:sRGB"
       id="filter2262"
       x="-0.1902666"
       y="-0.19283624"
       width="1.3805332"
       height="1.3856725">
      <feGaussianBlur
         inkscape:collect="always"
         stdDeviation="13.903594"
         id="feGaussianBlur2264" />
    </filter>
    <linearGradient
       inkscape:collect="always"
       xlink:href="#linearGradient2951"
       id="linearGradient2953"
       x1="173.03264"
       y1="105.23623"
       x2="137.27931"
       y2="346.40256"
       gradientUnits="userSpaceOnUse"
       gradientTransform="matrix(0.89459513,0,0,0.89459513,16.864779,16.864779)" />
    <filter
       inkscape:collect="always"
       style="color-interpolation-filters:sRGB"
       id="filter3315"
       x="-0.029916897"
       y="-0.029916897"
       width="1.0598338"
       height="1.0598338">
      <feGaussianBlur
         inkscape:collect="always"
         stdDeviation="3.5684682"
         id="feGaussianBlur3317" />
    </filter>
  </defs>
  <g
     inkscape:label="Ebene 1"
     inkscape:groupmode="layer"
     id="layer1">
    <rect
       style="fill:#ff2a2a;fill-opacity:1;stroke-width:1.70648;stroke-linecap:round;stroke-linejoin:round;stroke-dasharray:6.82591, 6.82591;filter:url(#filter3315)"
       id="rect3291"
       width="286.27045"
       height="286.27045"
       x="16.86478"
       y="16.86478"
       ry="36.812645"
       rx="39.830074" />
    <rect
       style="fill:url(#linearGradient1191);fill-opacity:1;stroke-width:1.70648;stroke-linecap:round;stroke-linejoin:round;stroke-dasharray:6.82591, 6.82591"
       id="rect132"
       width="286.27045"
       height="286.27045"
       x="16.86478"
       y="16.86478"
       ry="36.812645"
       rx="39.830074" />
    <path
       sodipodi:type="star"
       style="fill:#aa0000;fill-opacity:1;stroke-width:1.577;stroke-linecap:round;stroke-linejoin:round;stroke-dasharray:6.308, 6.308;filter:url(#filter2262)"
       id="path2090"
       inkscape:flatsided="false"
       sodipodi:sides="5"
       sodipodi:cx="139.64037"
       sodipodi:cy="154.48138"
       sodipodi:r1="51.915352"
       sodipodi:r2="92.705986"
       sodipodi:arg1="0.42779529"
       sodipodi:arg2="1.0561138"
       inkscape:rounded="0.11"
       inkscape:randomized="0"
       d="m 186.87724,176.01929 c -2.70067,5.92311 4.06485,55.95345 -1.60156,59.15793 -5.66641,3.20448 -45.05431,-28.37717 -51.52208,-29.11532 -6.46777,-0.73815 -51.958787,21.15647 -56.757449,16.75763 -4.798662,-4.39884 13.065744,-51.61822 11.769117,-57.99754 -1.296627,-6.37931 -36.177144,-42.87803 -33.476469,-48.80115 2.700676,-5.92311 53.129381,-3.52464 58.795791,-6.72912 5.66641,-3.20449 29.60008,-47.656555 36.06786,-46.918403 6.46777,0.738152 19.77001,49.439873 24.56868,53.838703 4.79866,4.39884 54.471,13.42467 55.76762,19.80399 1.29663,6.37932 -40.91083,34.08016 -43.61151,40.00328 z"
       transform="matrix(1.0865721,0.9008535,-0.9008535,1.0865721,154.44151,-139.05529)" />
    <path
       sodipodi:type="star"
       style="fill:url(#radialGradient1779);fill-opacity:1;stroke-width:1.577;stroke-linecap:round;stroke-linejoin:round;stroke-dasharray:6.308, 6.308"
       id="path28"
       inkscape:flatsided="false"
       sodipodi:sides="5"
       sodipodi:cx="139.64037"
       sodipodi:cy="154.48138"
       sodipodi:r1="51.915352"
       sodipodi:r2="92.705986"
       sodipodi:arg1="0.42779529"
       sodipodi:arg2="1.0561138"
       inkscape:rounded="0.11"
       inkscape:randomized="0"
       d="m 186.87724,176.01929 c -2.70067,5.92311 4.06485,55.95345 -1.60156,59.15793 -5.66641,3.20448 -45.05431,-28.37717 -51.52208,-29.11532 -6.46777,-0.73815 -51.958787,21.15647 -56.757449,16.75763 -4.798662,-4.39884 13.065744,-51.61822 11.769117,-57.99754 -1.296627,-6.37931 -36.177144,-42.87803 -33.476469,-48.80115 2.700676,-5.92311 53.129381,-3.52464 58.795791,-6.72912 5.66641,-3.20449 29.60008,-47.656555 36.06786,-46.918403 6.46777,0.738152 19.77001,49.439873 24.56868,53.838703 4.79866,4.39884 54.471,13.42467 55.76762,19.80399 1.29663,6.37932 -40.91083,34.08016 -43.61151,40.00328 z"
       transform="matrix(0.97204211,0.80589915,-0.80589915,0.97204211,155.0274,-107.53341)" />
    <path
       id="rect2442"
       style="fill:url(#linearGradient2953);fill-opacity:1;stroke-width:1.70648;stroke-linecap:round;stroke-linejoin:round;stroke-dasharray:6.82591, 6.82591"
       d="m 160,144.39176 a 317.4864,158.7432 0 0 0 -143.135221,17.4184 v 104.51212 c 0,20.3942 17.76459,36.81294 39.830451,36.81294 h 206.60954 c 22.06586,0 39.83045,-16.41874 39.83045,-36.81294 V 161.47469 A 317.4864,158.7432 0 0 0 160,144.39176 Z" />
  </g>
</svg>
